# Blender v3.6.4 OBJ File: ''
# www.blender.org
mtllib sadness_memory_ball_prop.mtl
o sadness_memory_ball_prop
v 0.000000 0.000000 -70.000000
v -0.000001 -30.371862 -63.067818
v -13.177860 -27.364101 -63.067818
v 0.000000 0.000000 -70.000000
v -23.745678 -18.936544 -63.067818
v 0.000000 0.000000 -70.000000
v -29.610376 -6.758375 -63.067818
v 0.000000 0.000000 -70.000000
v -29.610376 6.758373 -63.067818
v 0.000000 0.000000 -70.000000
v -23.745680 18.936544 -63.067818
v 0.000000 0.000000 -70.000000
v -13.177862 27.364100 -63.067818
v 0.000000 0.000000 -70.000000
v 0.000000 30.371862 -63.067818
v 0.000000 0.000000 -70.000000
v 13.177862 27.364100 -63.067818
v 0.000000 0.000000 -70.000000
v 23.745686 18.936537 -63.067818
v 0.000000 0.000000 -70.000000
v 29.610380 6.758358 -63.067818
v 0.000000 0.000000 -70.000000
v 29.610371 -6.758397 -63.067818
v 0.000000 0.000000 -70.000000
v 23.745661 -18.936567 -63.067818
v 0.000000 0.000000 -70.000000
v 13.177827 -27.364117 -63.067818
v 0.000000 0.000000 -70.000000
v -0.000001 -30.371862 -63.067818
v -23.745686 -49.308411 -43.644287
v -0.000002 -54.728207 -43.644287
v -42.788235 -34.122475 -43.644287
v -53.356056 -12.178171 -43.644287
v -53.356056 12.178168 -43.644287
v -42.788239 34.122475 -43.644287
v -23.745687 49.308407 -43.644287
v 0.000001 54.728207 -43.644287
v 23.745687 49.308407 -43.644287
v 42.788250 34.122463 -43.644287
v 53.356064 12.178142 -43.644287
v 53.356045 -12.178211 -43.644287
v 42.788204 -34.122517 -43.644287
v 23.745625 -49.308437 -43.644287
v -0.000002 -54.728207 -43.644287
v -29.610380 -61.486572 -15.576460
v -0.000003 -68.244949 -15.576460
v -53.356052 -42.550026 -15.576460
v -66.533905 -15.185929 -15.576460
v -66.533905 15.185925 -15.576460
v -53.356056 42.550026 -15.576460
v -29.610386 61.486568 -15.576460
v 0.000001 68.244949 -15.576460
v 29.610386 61.486568 -15.576460
v 53.356068 42.550011 -15.576460
v 66.533913 15.185892 -15.576460
v 66.533890 -15.185980 -15.576460
v 53.356010 -42.550079 -15.576460
v 29.610306 -61.486607 -15.576460
v -0.000003 -68.244949 -15.576460
v -29.610380 -61.486572 15.576467
v -0.000003 -68.244949 15.576467
v -53.356052 -42.550026 15.576467
v -66.533905 -15.185929 15.576467
v -66.533905 15.185925 15.576467
v -53.356056 42.550026 15.576467
v -29.610386 61.486568 15.576467
v 0.000001 68.244949 15.576467
v 29.610386 61.486568 15.576467
v 53.356068 42.550011 15.576467
v 66.533913 15.185892 15.576467
v 66.533890 -15.185980 15.576467
v 53.356010 -42.550079 15.576467
v 29.610306 -61.486607 15.576467
v -0.000003 -68.244949 15.576467
v -23.745686 -49.308411 43.644287
v -0.000002 -54.728207 43.644287
v -42.788235 -34.122475 43.644287
v -53.356056 -12.178171 43.644287
v -53.356056 12.178168 43.644287
v -42.788239 34.122475 43.644287
v -23.745687 49.308407 43.644287
v 0.000001 54.728207 43.644287
v 23.745687 49.308407 43.644287
v 42.788250 34.122463 43.644287
v 53.356064 12.178142 43.644287
v 53.356045 -12.178211 43.644287
v 42.788204 -34.122517 43.644287
v 23.745625 -49.308437 43.644287
v -0.000002 -54.728207 43.644287
v -13.177862 -27.364105 63.067818
v -0.000001 -30.371866 63.067818
v -23.745682 -18.936546 63.067818
v -29.610380 -6.758376 63.067818
v -29.610380 6.758374 63.067818
v -23.745684 18.936546 63.067818
v -13.177864 27.364103 63.067818
v 0.000000 30.371866 63.067818
v 13.177864 27.364103 63.067818
v 23.745689 18.936541 63.067818
v 29.610384 6.758359 63.067818
v 29.610374 -6.758398 63.067818
v 23.745665 -18.936571 63.067818
v 13.177829 -27.364120 63.067818
v -0.000001 -30.371866 63.067818
v 0.000000 0.000000 70.000000
v 0.000000 0.000000 70.000000
v 0.000000 0.000000 70.000000
v 0.000000 0.000000 70.000000
v 0.000000 0.000000 70.000000
v 0.000000 0.000000 70.000000
v 0.000000 0.000000 70.000000
v 0.000000 0.000000 70.000000
v 0.000000 0.000000 70.000000
v 0.000000 0.000000 70.000000
v 0.000000 0.000000 70.000000
v 0.000000 0.000000 70.000000
v 0.000000 0.000000 70.000000
v 0.000000 0.000000 70.000000
vt 0.589194 -0.342002
vt 0.563013 -0.376483
vt 0.581209 -0.384329
vt 0.596592 -0.343479
vt 0.604282 -0.386276
vt 0.617342 -0.344229
vt 0.630310 -0.386168
vt 0.643333 -0.343816
vt 0.658268 -0.385426
vt 0.671834 -0.343061
vt 0.687405 -0.384655
vt 0.701662 -0.342422
vt 0.717174 -0.384163
vt 0.732076 -0.342102
vt 0.747185 -0.384025
vt 0.762294 -0.342102
vt 0.777196 -0.384163
vt 0.792709 -0.342422
vt 0.806966 -0.384655
vt 0.822537 -0.343061
vt 0.836103 -0.385426
vt 0.851038 -0.343816
vt 0.864062 -0.386168
vt 0.877030 -0.344229
vt 0.890090 -0.386276
vt 0.897780 -0.343479
vt 0.913163 -0.384329
vt 0.905178 -0.342002
vt 0.931359 -0.376483
vt 0.561593 -0.423962
vt 0.531373 -0.412122
vt 0.593317 -0.427582
vt 0.624734 -0.427949
vt 0.655612 -0.427349
vt 0.686267 -0.426525
vt 0.716803 -0.426143
vt 0.747185 -0.426017
vt 0.777567 -0.426143
vt 0.808104 -0.426525
vt 0.838759 -0.427349
vt 0.869638 -0.427949
vt 0.901054 -0.427582
vt 0.932778 -0.423962
vt 0.962998 -0.412123
vt 0.549717 -0.466877
vt 0.510555 -0.461400
vt 0.586406 -0.468607
vt 0.621015 -0.468868
vt 0.653986 -0.468661
vt 0.685647 -0.468231
vt 0.716527 -0.468117
vt 0.747185 -0.468072
vt 0.777844 -0.468117
vt 0.808723 -0.468231
vt 0.840385 -0.468661
vt 0.873356 -0.468869
vt 0.907965 -0.468607
vt 0.944654 -0.466877
vt 0.983816 -0.461401
vt 0.549717 -0.511359
vt 0.510555 -0.516835
vt 0.586406 -0.509629
vt 0.621015 -0.509368
vt 0.653986 -0.509576
vt 0.685647 -0.510006
vt 0.716527 -0.510119
vt 0.747185 -0.510164
vt 0.777844 -0.510119
vt 0.808723 -0.510006
vt 0.840385 -0.509576
vt 0.873356 -0.509368
vt 0.907965 -0.509629
vt 0.944654 -0.511359
vt 0.983816 -0.516835
vt 0.561593 -0.554273
vt 0.531373 -0.566113
vt 0.593317 -0.550653
vt 0.624734 -0.550287
vt 0.655612 -0.550887
vt 0.686267 -0.551712
vt 0.716803 -0.552092
vt 0.747185 -0.552219
vt 0.777567 -0.552093
vt 0.808104 -0.551712
vt 0.838759 -0.550887
vt 0.869638 -0.550287
vt 0.901055 -0.550653
vt 0.932779 -0.554273
vt 0.962998 -0.566112
vt 0.581208 -0.593906
vt 0.563012 -0.601752
vt 0.604281 -0.591959
vt 0.630309 -0.592067
vt 0.658267 -0.592810
vt 0.687405 -0.593582
vt 0.717174 -0.594073
vt 0.747185 -0.594211
vt 0.777196 -0.594073
vt 0.806966 -0.593582
vt 0.836104 -0.592810
vt 0.864062 -0.592067
vt 0.890091 -0.591959
vt 0.913163 -0.593906
vt 0.931359 -0.601752
vt 0.589194 -0.636233
vt 0.596591 -0.634756
vt 0.617341 -0.634006
vt 0.643332 -0.634419
vt 0.671833 -0.635175
vt 0.701661 -0.635814
vt 0.732076 -0.636134
vt 0.762294 -0.636134
vt 0.792710 -0.635814
vt 0.822538 -0.635175
vt 0.851039 -0.634419
vt 0.877031 -0.634006
vt 0.897781 -0.634756
vt 0.905177 -0.636232
vn 0.0000 -0.0000 -1.0000
vn -0.0000 -0.4589 -0.8885
vn -0.1991 -0.4135 -0.8885
vn -0.3588 -0.2861 -0.8885
vn -0.4474 -0.1021 -0.8885
vn -0.4474 0.1021 -0.8885
vn -0.3588 0.2861 -0.8885
vn -0.1991 0.4135 -0.8885
vn 0.0000 0.4589 -0.8885
vn 0.1991 0.4135 -0.8885
vn 0.3588 0.2861 -0.8885
vn 0.4474 0.1021 -0.8885
vn 0.4474 -0.1021 -0.8885
vn 0.3588 -0.2861 -0.8885
vn 0.1991 -0.4135 -0.8885
vn -0.3443 -0.7150 -0.6085
vn -0.0000 -0.7936 -0.6085
vn -0.6204 -0.4948 -0.6085
vn -0.7737 -0.1766 -0.6085
vn -0.7737 0.1766 -0.6085
vn -0.6204 0.4948 -0.6085
vn -0.3443 0.7150 -0.6085
vn 0.0000 0.7935 -0.6085
vn 0.3443 0.7150 -0.6085
vn 0.6204 0.4948 -0.6085
vn 0.7737 0.1766 -0.6085
vn 0.7737 -0.1766 -0.6085
vn 0.6204 -0.4948 -0.6085
vn 0.3443 -0.7150 -0.6085
vn -0.4236 -0.8797 -0.2160
vn 0.0000 -0.9764 -0.2160
vn -0.7634 -0.6088 -0.2160
vn -0.9519 -0.2173 -0.2160
vn -0.9519 0.2173 -0.2160
vn -0.7634 0.6088 -0.2160
vn -0.4236 0.8797 -0.2160
vn 0.0000 0.9764 -0.2160
vn 0.4236 0.8797 -0.2160
vn 0.7634 0.6088 -0.2160
vn 0.9519 0.2173 -0.2160
vn 0.9519 -0.2173 -0.2160
vn 0.7634 -0.6088 -0.2160
vn 0.4236 -0.8797 -0.2160
vn -0.4236 -0.8797 0.2160
vn -0.0000 -0.9764 0.2160
vn -0.7634 -0.6088 0.2160
vn -0.9519 -0.2173 0.2160
vn -0.9519 0.2173 0.2160
vn -0.7634 0.6088 0.2160
vn -0.4236 0.8797 0.2160
vn 0.0000 0.9764 0.2160
vn 0.4236 0.8797 0.2160
vn 0.7634 0.6088 0.2160
vn 0.9519 0.2173 0.2160
vn 0.9519 -0.2173 0.2160
vn 0.7634 -0.6088 0.2160
vn 0.4236 -0.8797 0.2160
vn -0.3443 -0.7150 0.6085
vn -0.0000 -0.7936 0.6085
vn -0.6204 -0.4948 0.6085
vn -0.7737 -0.1766 0.6085
vn -0.7737 0.1766 0.6085
vn -0.6204 0.4948 0.6085
vn -0.3443 0.7150 0.6085
vn -0.0000 0.7935 0.6085
vn 0.3443 0.7150 0.6085
vn 0.6204 0.4948 0.6085
vn 0.7737 0.1766 0.6085
vn 0.7737 -0.1766 0.6085
vn 0.6204 -0.4948 0.6085
vn 0.3443 -0.7150 0.6085
vn -0.1991 -0.4135 0.8885
vn 0.0000 -0.4589 0.8885
vn -0.3588 -0.2861 0.8885
vn -0.4474 -0.1021 0.8885
vn -0.4474 0.1021 0.8885
vn -0.3588 0.2861 0.8885
vn -0.1991 0.4135 0.8885
vn 0.0000 0.4589 0.8885
vn 0.1991 0.4135 0.8885
vn 0.3588 0.2861 0.8885
vn 0.4474 0.1021 0.8885
vn 0.4474 -0.1021 0.8885
vn 0.3588 -0.2861 0.8885
vn 0.1991 -0.4135 0.8885
vn 0.0000 -0.0000 1.0000
usemtl sadness_memory_ball_mat
s 1
f 1/1/1 2/2/2 3/3/3
f 4/4/1 3/3/3 5/5/4
f 6/6/1 5/5/4 7/7/5
f 8/8/1 7/7/5 9/9/6
f 10/10/1 9/9/6 11/11/7
f 12/12/1 11/11/7 13/13/8
f 14/14/1 13/13/8 15/15/9
f 16/16/1 15/15/9 17/17/10
f 18/18/1 17/17/10 19/19/11
f 20/20/1 19/19/11 21/21/12
f 22/22/1 21/21/12 23/23/13
f 24/24/1 23/23/13 25/25/14
f 26/26/1 25/25/14 27/27/15
f 28/28/1 27/27/15 29/29/2
f 30/30/16 3/3/3 2/2/2
f 2/2/2 31/31/17 30/30/16
f 32/32/18 5/5/4 3/3/3
f 3/3/3 30/30/16 32/32/18
f 33/33/19 7/7/5 5/5/4
f 5/5/4 32/32/18 33/33/19
f 34/34/20 9/9/6 7/7/5
f 7/7/5 33/33/19 34/34/20
f 35/35/21 11/11/7 9/9/6
f 9/9/6 34/34/20 35/35/21
f 36/36/22 13/13/8 11/11/7
f 11/11/7 35/35/21 36/36/22
f 37/37/23 15/15/9 13/13/8
f 13/13/8 36/36/22 37/37/23
f 38/38/24 17/17/10 15/15/9
f 15/15/9 37/37/23 38/38/24
f 39/39/25 19/19/11 17/17/10
f 17/17/10 38/38/24 39/39/25
f 40/40/26 21/21/12 19/19/11
f 19/19/11 39/39/25 40/40/26
f 41/41/27 23/23/13 21/21/12
f 21/21/12 40/40/26 41/41/27
f 42/42/28 25/25/14 23/23/13
f 23/23/13 41/41/27 42/42/28
f 43/43/29 27/27/15 25/25/14
f 25/25/14 42/42/28 43/43/29
f 44/44/17 29/29/2 27/27/15
f 27/27/15 43/43/29 44/44/17
f 45/45/30 30/30/16 31/31/17
f 31/31/17 46/46/31 45/45/30
f 47/47/32 32/32/18 30/30/16
f 30/30/16 45/45/30 47/47/32
f 48/48/33 33/33/19 32/32/18
f 32/32/18 47/47/32 48/48/33
f 49/49/34 34/34/20 33/33/19
f 33/33/19 48/48/33 49/49/34
f 50/50/35 35/35/21 34/34/20
f 34/34/20 49/49/34 50/50/35
f 51/51/36 36/36/22 35/35/21
f 35/35/21 50/50/35 51/51/36
f 52/52/37 37/37/23 36/36/22
f 36/36/22 51/51/36 52/52/37
f 53/53/38 38/38/24 37/37/23
f 37/37/23 52/52/37 53/53/38
f 54/54/39 39/39/25 38/38/24
f 38/38/24 53/53/38 54/54/39
f 55/55/40 40/40/26 39/39/25
f 39/39/25 54/54/39 55/55/40
f 56/56/41 41/41/27 40/40/26
f 40/40/26 55/55/40 56/56/41
f 57/57/42 42/42/28 41/41/27
f 41/41/27 56/56/41 57/57/42
f 58/58/43 43/43/29 42/42/28
f 42/42/28 57/57/42 58/58/43
f 59/59/31 44/44/17 43/43/29
f 43/43/29 58/58/43 59/59/31
f 60/60/44 45/45/30 46/46/31
f 46/46/31 61/61/45 60/60/44
f 62/62/46 47/47/32 45/45/30
f 45/45/30 60/60/44 62/62/46
f 63/63/47 48/48/33 47/47/32
f 47/47/32 62/62/46 63/63/47
f 64/64/48 49/49/34 48/48/33
f 48/48/33 63/63/47 64/64/48
f 65/65/49 50/50/35 49/49/34
f 49/49/34 64/64/48 65/65/49
f 66/66/50 51/51/36 50/50/35
f 50/50/35 65/65/49 66/66/50
f 67/67/51 52/52/37 51/51/36
f 51/51/36 66/66/50 67/67/51
f 68/68/52 53/53/38 52/52/37
f 52/52/37 67/67/51 68/68/52
f 69/69/53 54/54/39 53/53/38
f 53/53/38 68/68/52 69/69/53
f 70/70/54 55/55/40 54/54/39
f 54/54/39 69/69/53 70/70/54
f 71/71/55 56/56/41 55/55/40
f 55/55/40 70/70/54 71/71/55
f 72/72/56 57/57/42 56/56/41
f 56/56/41 71/71/55 72/72/56
f 73/73/57 58/58/43 57/57/42
f 57/57/42 72/72/56 73/73/57
f 74/74/45 59/59/31 58/58/43
f 58/58/43 73/73/57 74/74/45
f 75/75/58 60/60/44 61/61/45
f 61/61/45 76/76/59 75/75/58
f 77/77/60 62/62/46 60/60/44
f 60/60/44 75/75/58 77/77/60
f 78/78/61 63/63/47 62/62/46
f 62/62/46 77/77/60 78/78/61
f 79/79/62 64/64/48 63/63/47
f 63/63/47 78/78/61 79/79/62
f 80/80/63 65/65/49 64/64/48
f 64/64/48 79/79/62 80/80/63
f 81/81/64 66/66/50 65/65/49
f 65/65/49 80/80/63 81/81/64
f 82/82/65 67/67/51 66/66/50
f 66/66/50 81/81/64 82/82/65
f 83/83/66 68/68/52 67/67/51
f 67/67/51 82/82/65 83/83/66
f 84/84/67 69/69/53 68/68/52
f 68/68/52 83/83/66 84/84/67
f 85/85/68 70/70/54 69/69/53
f 69/69/53 84/84/67 85/85/68
f 86/86/69 71/71/55 70/70/54
f 70/70/54 85/85/68 86/86/69
f 87/87/70 72/72/56 71/71/55
f 71/71/55 86/86/69 87/87/70
f 88/88/71 73/73/57 72/72/56
f 72/72/56 87/87/70 88/88/71
f 89/89/59 74/74/45 73/73/57
f 73/73/57 88/88/71 89/89/59
f 90/90/72 75/75/58 76/76/59
f 76/76/59 91/91/73 90/90/72
f 92/92/74 77/77/60 75/75/58
f 75/75/58 90/90/72 92/92/74
f 93/93/75 78/78/61 77/77/60
f 77/77/60 92/92/74 93/93/75
f 94/94/76 79/79/62 78/78/61
f 78/78/61 93/93/75 94/94/76
f 95/95/77 80/80/63 79/79/62
f 79/79/62 94/94/76 95/95/77
f 96/96/78 81/81/64 80/80/63
f 80/80/63 95/95/77 96/96/78
f 97/97/79 82/82/65 81/81/64
f 81/81/64 96/96/78 97/97/79
f 98/98/80 83/83/66 82/82/65
f 82/82/65 97/97/79 98/98/80
f 99/99/81 84/84/67 83/83/66
f 83/83/66 98/98/80 99/99/81
f 100/100/82 85/85/68 84/84/67
f 84/84/67 99/99/81 100/100/82
f 101/101/83 86/86/69 85/85/68
f 85/85/68 100/100/82 101/101/83
f 102/102/84 87/87/70 86/86/69
f 86/86/69 101/101/83 102/102/84
f 103/103/85 88/88/71 87/87/70
f 87/87/70 102/102/84 103/103/85
f 104/104/73 89/89/59 88/88/71
f 88/88/71 103/103/85 104/104/73
f 105/105/86 90/90/72 91/91/73
f 106/106/86 92/92/74 90/90/72
f 107/107/86 93/93/75 92/92/74
f 108/108/86 94/94/76 93/93/75
f 109/109/86 95/95/77 94/94/76
f 110/110/86 96/96/78 95/95/77
f 111/111/86 97/97/79 96/96/78
f 112/112/86 98/98/80 97/97/79
f 113/113/86 99/99/81 98/98/80
f 114/114/86 100/100/82 99/99/81
f 115/115/86 101/101/83 100/100/82
f 116/116/86 102/102/84 101/101/83
f 117/117/86 103/103/85 102/102/84
f 118/118/86 104/104/73 103/103/85
